<svg width="32" height="32" viewBox="323 323 434 434" xmlns="http://www.w3.org/2000/svg">
  <defs>
    <clipPath id="clip_1">
      <path transform="matrix(1,0,0,-1,0,1080)" d="M0 1080H1080V0H0Z" />
    </clipPath>
  </defs>

  <!-- White background -->
  <rect x="323" y="323" width="434" height="434" fill="white"/>

  <!-- MAIN LOGO -->
  <g id="logo">
    <path transform="matrix(1,0,0,-1,343.7069,343.70649)" d="M0 0V-190.975H10.637V-10.637H381.949V-190.975H392.586V0Z" fill="#000000" />
    <path transform="matrix(1,0,0,-1,354.3439,545.3182)" d="M0 0H-10.637V-190.975H185.656V-180.338H0Z" fill="#000000" />
    <path transform="matrix(1,0,0,-1,555.0687,545.3182)" d="M0 0V-10.637-180.338-190.975H181.224V-180.338-95.487-90.169-84.85H88.396V-95.487H170.587V-180.338H10.637V-10.637H181.224V0H10.637Z" fill="#000000" />
    <!-- Center Divider -->
    <path transform="matrix(1,0,0,-1,0,1080)" d="M539.853 705.484H529.50906V549.728H539.853Z" fill="#000000" />
    <!-- Stool -->
    <path transform="matrix(1,0,0,-1,447.4336,691.5045)" d="M0 0C0-.598-.013-1.198 .018-1.795 .096-3.254 .886-3.947 2.34-3.921 3.687-3.896 4.432-3.235 4.513-1.884 4.554-1.212 4.544-.538 4.544 .136 4.546 14.726 4.545 29.317 4.545 43.908 4.546 44.771 4.545 45.634 4.545 46.497 4.774 46.539 5.002 46.582 5.23 46.624 5.544 45.78 5.949 44.957 6.161 44.088 10.686 25.485 15.18 6.875 19.717-11.725 20.012-12.933 20.306-14.424 21.148-15.136 21.996-15.855 23.525-15.766 24.757-16.031 24.868-15.097 25.253-14.097 25.049-13.239 21.232 2.763 17.359 18.753 13.465 34.737 11.697 41.996 9.853 49.237 10.616 57.049 13.643 57.049 16.701 57.189 19.739 57.003 22.085 56.86 21.994 58.395 22.118 59.862 22.286 61.846 20.745 61.243 19.782 61.246 8.124 61.279-3.536 61.28-15.194 61.244-16.151 61.241-17.679 61.867-17.561 59.883-17.464 58.255-17.354 56.817-14.966 56.993-12.008 57.211-9.022 57.045-5.463 57.045-6.039 51.96-6.184 47.081-7.203 42.392-9.649 31.141-12.501 19.979-15.197 8.783-17.001 1.296-18.837-6.184-20.6-13.681-20.768-14.398-20.701-15.787-20.422-15.878-19.518-16.174-18.125-16.417-17.545-15.932-16.555-15.103-15.688-13.794-15.378-12.537-10.719 6.341-6.163 25.244-1.561 44.136-1.356 44.977-.941 45.766-.623 46.58-.415 46.524-.207 46.467 .001 46.411V43.997C.001 29.331 0 14.666 0 0" fill="#000000" />
  </g>

  <!-- ACCENTS -->
  <g id="accent" fill="#c8cbcb">
    <path transform="matrix(1,0,0,-1,359.3567,720.76589)" d="M0 0H180.57L174.888 7.331 172.326 10.637H10.477V167.424L.071 175.446H0Z" />
    <path transform="matrix(1,0,0,-1,570.5786,720.6089)" d="M0 0 2.03 .831 10.813 7.156 10.615 148.979H157.444L161.54 154.26 165.671 159.594H0Z" />
    <path transform="matrix(1,0,0,-1,712.7228,369.8109)" d="M0 0 8.084 10.433V10.637H-353.366V-164.801L-342.729-157.036V0Z" />
  </g>
</svg>
