<svg xmlns="http://www.w3.org/2000/svg" xmlns:xlink="http://www.w3.org/1999/xlink" xmlns:inkscape="http://www.inkscape.org/namespaces/inkscape" version="1.1" width="1080" height="1080" viewBox="0 0 1080 1080">
<defs>
<clipPath id="clip_1">
<path transform="matrix(1,0,0,-1,0,1080)" d="M0 1080H1080V0H0Z"/>
</clipPath>
</defs>
<path transform="matrix(1,0,0,-1,305.0386,677.1577)" d="M0 0H-68.349V122.402H-86.713V-16.377H0Z"/>
<path transform="matrix(1,0,0,-1,430.8501,677.1577)" d="M0 0H-85.2V47.239H-8.426V63.521H-85.2V106.026H-3.219V122.402H-103.564V-16.377H0Z"/>
<g clip-path="url(#clip_1)">
<path transform="matrix(1,0,0,-1,521.1592,639.1024)" d="M0 0H40.801V-25.843C36.887-29.315 31.145-32.581 23.573-35.642 16-38.704 8.236-40.232 .286-40.232-8.867-40.232-17.512-38.214-25.655-34.174-33.795-30.136-39.997-23.95-44.255-15.619-48.515-7.289-50.646 3.061-50.646 15.431-50.646 25.466-48.88 34.774-45.345 43.357-43.262 48.342-40.343 52.919-36.587 57.084-32.834 61.249-27.894 64.609-21.772 67.166-15.652 69.721-8.393 71 0 71 7.006 71 13.378 69.784 19.124 67.354 24.866 64.924 29.283 61.69 32.377 57.652 35.467 53.612 38.057 48.058 40.138 40.99L56.705 45.535C54.307 54.874 50.804 62.447 46.198 68.254 41.589 74.06 35.231 78.588 27.122 81.839 19.013 85.088 9.94 86.714-.094 86.714-13.915 86.714-26.128 83.874-36.729 78.195-47.333 72.514-55.458 63.82-61.105 52.114-66.754 40.406-69.58 27.799-69.58 14.295-69.58 .663-66.74-11.676-61.06-22.719-55.379-33.764-46.97-42.206-35.831-48.042-24.693-53.881-12.305-56.799 1.326-56.799 11.423-56.799 21.267-54.984 30.861-51.356 40.453-47.728 49.761-42.315 58.789-35.12V16.377L0 16.282Z"/>
<path transform="matrix(1,0,0,-1,698.563,663.71536)" d="M0 0-72.893 108.96H-91.731V-29.82H-74.123V79.235L-1.23-29.82H17.607V108.96H0Z"/>
<path transform="matrix(1,0,0,-1,771.8354,636.546)" d="M0 0 15.243 40.707C18.46 49.477 20.952 58.314 22.721 67.213 24.866 59.702 28.148 50.109 32.565 38.434L47.049 0ZM33.038 81.791H13.254L-40.042-56.989H-20.542L-5.301-14.957H52.729L68.918-56.989H89.839Z"/>
<path transform="matrix(1,0,0,-1,0,1080)" d="M218.325 290.956H223.523V321.07499H218.325Z"/>
<path transform="matrix(1,0,0,-1,0,1080)" d="M218.325 328.065H223.523V334.564H218.325Z"/>
<path transform="matrix(1,0,0,-1,261.8062,763.8552)" d="M0 0C0-6.75-.038-13.267 .36-18.572H.279C-2.04-14.079-14.93 6.474-20.859 16.136H-28.113V-25.188H-22.911V-8.64C-22.911-1.181-22.915 5.824-23.213 10.531H-23.131C-20.54 5.895-7.096-16.218-1.633-25.188H5.182V16.136H0Z"/>
<path transform="matrix(1,0,0,-1,273.3872,752.4135)" d="M0 0H13.35V-36.63H18.867V0H32.231V4.695H0Z"/>
<path transform="matrix(1,0,0,-1,316.8931,769.726)" d="M0 0H20.552V4.695H0V17.312H21.539V22.007H-5.374V-19.318H21.866L22.573-14.624H0Z"/>
<path transform="matrix(1,0,0,-1,361.3457,766.2302)" d="M0 0H-8.985V13.901H.617C6.229 13.901 9.094 11.411 9.094 7.019 9.094 2.374 6.318 0 0 0M14.747 7.457C14.747 13.906 10.222 18.511 1.731 18.511H-14.419V-22.813H-8.985V-4.61H-.536C6.875-4.61 8.537-7.167 8.537-13.052V-13.93C8.537-17.811 8.485-21.031 9.235-22.813H14.565C13.877-21.083 14.009-17.479 14.009-14.631V-12.86C14.009-5.687 11.075-3.168 7.701-2.264 11.661-1.17 14.747 2.086 14.747 7.457"/>
<path transform="matrix(1,0,0,-1,0,1080)" d="M385.365 290.956H390.843V332.281H385.365Z"/>
<path transform="matrix(1,0,0,-1,418.5894,784.96487)" d="M0 0C-8.885 0-13.456 7.83-13.456 16.762-13.456 25.578-9.353 33.166 .012 33.166 9.083 33.166 13.414 25.641 13.414 16.737 13.414 7.908 9.594 0 0 0M.238 37.84C-12.265 37.84-19.194 28.407-19.194 16.584-19.194 4.729-12.405-4.673-.242-4.673 12.778-4.673 19.15 5.452 19.15 16.817 19.15 29.102 11.873 37.84 .238 37.84"/>
<path transform="matrix(1,0,0,-1,460.7378,766.2302)" d="M0 0H-8.985V13.901H.617C6.229 13.901 9.094 11.411 9.094 7.019 9.094 2.374 6.316 0 0 0M14.747 7.457C14.747 13.906 10.222 18.511 1.73 18.511H-14.419V-22.813H-8.985V-4.61H-.536C6.875-4.61 8.537-7.167 8.537-13.052V-13.93C8.537-17.811 8.485-21.031 9.235-22.813H14.565C13.877-21.083 14.008-17.479 14.008-14.631V-12.86C14.008-5.687 11.075-3.168 7.701-2.264 11.661-1.17 14.747 2.086 14.747 7.457"/>
<!-- Z: top bar + bottom bar + diagonal (horizontal-edge parallelogram, no protrusions) -->
<g transform="matrix(1,0,0,-1,498.6138,764.9123)">
  <path d="M-16 12H14V17H-16Z"/>
  <path d="M-16 -24H14V-19H-16Z"/>
  <path d="M14 12L8 12L-16 -19L-10 -19Z"/>
</g>
<path transform="matrix(1,0,0,-1,438.8992,296.1546)" d="M0 0H202.202V-98.205H207.994V5.792H-5.792V-98.205H0Z"/>
<path transform="matrix(1,0,0,-1,539.9998,498.3568)" d="M0 0H-101.101V98.205H-106.893V-5.792H0Z"/>
<path transform="matrix(1,0,0,-1,0,1080)" d="M539.92 772.86H534.287V688.041H539.92Z"/>
<path transform="matrix(1,0,0,-1,646.8933,400.15168)" d="M0 0H-92.895-98.688V-5.792-98.205-103.997H0V-98.205-51.999-49.103-46.206H-50.551V-51.999H-5.792V-98.205H-92.895V-5.792H0Z"/>
<path transform="matrix(1,0,0,-1,441.6677,400.1524)" d="M0 0H-.039V-95.541H98.292L95.198-91.549 93.803-89.749H5.667V-4.368Z" fill="#c8cbcb"/>
<path transform="matrix(1,0,0,-1,539.9988,495.6646)" d="M0 0-.039-.029H0Z" fill="#c8cbcb"/>
<path transform="matrix(1,0,0,-1,644.6199,411.60438)" d="M0 0 2.25 2.905H-87.968V-84.004L-86.863-83.551-82.08-80.107-82.188-2.876H-2.23Z" fill="#c8cbcb"/>
<path transform="matrix(1,0,0,-1,646.8933,408.69984)" d="M0 0H-.024L0-.019Z" fill="#c8cbcb"/>
<path transform="matrix(1,0,0,-1,638.4514,456.3614)" d="M0 0 .009-.007V0Z" fill="#c8cbcb"/>
<path transform="matrix(1,0,0,-1,556.6516,495.61354)" d="M0 0V-.009H.01 .022L.005-.002 0 .005V0Z" fill="#c8cbcb"/>
<path transform="matrix(1,0,0,-1,481.3162,474.9759)" d="M0 0C-.982-4.077-1.982-8.151-2.942-12.233-3.034-12.623-2.997-13.38-2.845-13.43-2.353-13.591-1.594-13.723-1.279-13.459-.74-13.008-.267-12.295-.098-11.61 2.439-1.33 4.92 8.964 7.426 19.251 7.537 19.709 7.764 20.139 7.937 20.583 8.05 20.552 8.163 20.521 8.277 20.491V19.176C8.276 11.19 8.276 3.203 8.276-4.783 8.276-5.109 8.269-5.435 8.286-5.76 8.328-6.555 8.758-6.932 9.55-6.918 10.284-6.905 10.689-6.545 10.734-5.809 10.756-5.443 10.75-5.076 10.75-4.709 10.751 3.236 10.751 11.182 10.751 19.127 10.751 19.597 10.751 20.068 10.751 20.538 10.875 20.561 11 20.583 11.124 20.606 11.295 20.147 11.516 19.699 11.631 19.225 14.095 9.095 16.542-1.039 19.013-11.168 19.174-11.826 19.334-12.638 19.792-13.026 20.254-13.417 21.087-13.368 21.757-13.513 21.818-13.004 22.028-12.46 21.917-11.992 19.838-3.278 17.729 5.429 15.608 14.133 14.646 18.086 13.641 22.03 14.057 26.283 15.705 26.283 17.371 26.36 19.025 26.259 20.303 26.181 20.253 27.016 20.32 27.816 20.412 28.896 19.573 28.567 19.049 28.569 12.7 28.587 6.351 28.588 .002 28.568-.519 28.567-1.351 28.907-1.287 27.827-1.234 26.94-1.174 26.157 .126 26.253 1.737 26.372 3.363 26.282 5.301 26.282 4.988 23.512 4.908 20.855 4.354 18.302 3.021 12.175 1.468 6.097 0 0" fill="#231f20"/>
<path transform="matrix(1,0,0,-1,584.179,333.59919)" d="M0 0C-.101-.029-.231-.087-.39-.145V-.882C-.867-.983-1.33-1.07-1.764-1.171-2.14-1.258-2.313-1.489-2.299-1.894-2.284-2.602-2.342-3.311-2.299-4.019-2.241-5.002-2.631-5.783-3.224-6.506-3.455-6.795-3.716-7.084-3.99-7.344-6.332-9.484-7.518-12.187-7.966-15.267-8.082-16.047-8.125-16.828-8.197-17.478-6.954-17.441-5.726-17.397-4.5-17.357-3.62-19.073-1.854-20.258 .206-20.258 2.268-20.258 4.035-19.07 4.914-17.353 6.227-17.396 7.541-17.445 8.862-17.478 8.79-16.756 8.732-15.946 8.602-15.151 8.168-12.317 7.142-9.758 5.031-7.706 4.641-7.33 4.265-6.925 3.918-6.52 3.296-5.797 2.906-4.988 2.978-3.99 3.021-3.282 2.964-2.573 2.978-1.865 2.978-1.489 2.804-1.272 2.472-1.186 2.024-1.07 1.562-.997 1.055-.882 1.055-.723 1.07-.549 1.055-.376 1.041-.275 .983-.101 .925-.087 .39-.029 .506 .376 .506 .694V29.022H0Z" fill="#231f20"/>
<path transform="matrix(1,0,0,-1,596.2202,322.6989)" d="M0 0C-.064-.018-.145-.055-.245-.091V-.553C-.544-.617-.834-.671-1.107-.735-1.343-.789-1.451-.934-1.442-1.188-1.433-1.633-1.469-2.077-1.442-2.522-1.406-3.139-1.651-3.629-2.023-4.082-2.168-4.264-2.331-4.445-2.504-4.608-3.973-5.951-4.717-7.647-4.998-9.579-5.071-10.069-5.098-10.559-5.144-10.967-4.364-10.944-3.593-10.916-2.823-10.891-2.271-11.968-1.163-12.712 .129-12.712 1.423-12.712 2.532-11.966 3.083-10.889 3.907-10.915 4.732-10.946 5.561-10.967 5.515-10.514 5.479-10.006 5.397-9.507 5.125-7.729 4.481-6.123 3.157-4.835 2.912-4.599 2.676-4.345 2.458-4.091 2.068-3.638 1.823-3.13 1.869-2.504 1.896-2.059 1.86-1.615 1.869-1.17 1.869-.934 1.76-.798 1.551-.744 1.27-.671 .98-.626 .662-.553 .662-.454 .671-.345 .662-.236 .653-.172 .617-.064 .581-.055 .245-.018 .317 .236 .317 .435V18.121H0Z" fill="#231f20"/>
<path transform="matrix(1,0,0,-1,441.658,394.35993)" d="M0 0-.029 .039V0Z" fill="#c8cbcb"/>
<path transform="matrix(1,0,0,-1,584.6848,304.5775)" d="M0 0H11.535 11.853 49.373L53.775 5.681V5.792H-143.056V-89.744L-137.263-85.515V0H-.506Z" fill="#c8cbcb"/>
</g>
</svg>
